<svg xmlns="http://www.w3.org/2000/svg" viewBox="0 0 405.037 66.526">
<g>
	<path d="M11.109,52.695c-0.366-0.266-0.788-0.459-1.237-0.617c0.553-0.249,1.012-0.594,1.367-1.046
		c0.495-0.629,0.743-1.391,0.743-2.288s-0.186-1.654-0.555-2.275c-0.37-0.621-0.915-1.089-1.639-1.404
		c-0.724-0.314-1.612-0.471-2.666-0.471H0.236v16.508h7.122c0.866,0,1.635-0.107,2.311-0.319c0.677-0.212,1.255-0.522,1.735-0.932
		c0.478-0.408,0.841-0.915,1.084-1.521c0.244-0.605,0.365-1.3,0.365-2.087c0-0.77-0.154-1.454-0.459-2.052
		C12.087,53.596,11.659,53.096,11.109,52.695z M2.783,47.047h3.915c0.881,0,1.557,0.188,2.029,0.566
		c0.472,0.377,0.708,0.919,0.708,1.627c0,0.425-0.107,0.802-0.319,1.132c-0.213,0.33-0.505,0.589-0.873,0.778
		c-0.37,0.189-0.791,0.283-1.261,0.283H2.783V47.047z M9.458,58.014c-0.535,0.424-1.282,0.636-2.242,0.636H2.783v-4.764h4.316
		c0.645,0,1.203,0.09,1.674,0.271c0.472,0.181,0.839,0.444,1.098,0.791c0.259,0.345,0.39,0.763,0.39,1.249
		C10.26,56.984,9.992,57.588,9.458,58.014z"/>
	<path d="M21.461,57.659c-0.109,0.33-0.223,0.66-0.342,0.99c-0.001,0.002-0.001,0.003-0.002,0.005
		c-0.012-0.037-0.02-0.073-0.033-0.111c-0.111-0.322-0.205-0.562-0.284-0.72l-3.867-9.103h-2.831L19.848,61.7l-2.089,4.826h2.618
		l2.1-5.424l5.094-12.381h-2.877L21.461,57.659z"/>
	<path d="M48.701,46.882c-0.676-0.739-1.489-1.305-2.441-1.699c-0.952-0.392-2.015-0.589-3.195-0.589h-6.462v16.508h6.462
		c1.18,0,2.249-0.197,3.207-0.589c0.96-0.393,1.773-0.956,2.441-1.687c0.668-0.73,1.182-1.604,1.545-2.618
		c0.361-1.013,0.543-2.134,0.543-3.361s-0.182-2.342-0.543-3.348C49.894,48.493,49.376,47.621,48.701,46.882z M47.852,55.278
		c-0.236,0.724-0.578,1.332-1.027,1.827c-0.447,0.495-0.998,0.877-1.651,1.144c-0.653,0.268-1.395,0.401-2.228,0.401h-3.798V47.047
		h3.798c0.833,0,1.572,0.133,2.217,0.4c0.645,0.268,1.194,0.653,1.651,1.156c0.455,0.503,0.802,1.112,1.038,1.827
		c0.234,0.716,0.353,1.522,0.353,2.417C48.205,53.744,48.086,54.554,47.852,55.278z"/>
	<path d="M63.239,50.16c-0.511-0.535-1.113-0.956-1.804-1.262c-0.693-0.307-1.439-0.46-2.24-0.46c-0.912,0-1.758,0.161-2.535,0.483
		c-0.779,0.322-1.447,0.779-2.006,1.368c-0.559,0.589-0.994,1.285-1.309,2.087c-0.315,0.801-0.47,1.69-0.47,2.665
		c0,1.226,0.278,2.311,0.837,3.254c0.557,0.943,1.328,1.687,2.311,2.229c0.983,0.542,2.111,0.814,3.384,0.814
		c0.581,0,1.176-0.083,1.781-0.248s1.178-0.39,1.722-0.673c0.543-0.283,1.002-0.613,1.38-0.99l-1.226-1.722
		c-0.614,0.534-1.184,0.904-1.71,1.108c-0.528,0.204-1.096,0.307-1.71,0.307c-0.864,0-1.628-0.173-2.288-0.519
		c-0.66-0.345-1.171-0.838-1.532-1.474c-0.274-0.481-0.443-1.028-0.51-1.639h9.471l0.023-1.037c0.015-0.865-0.113-1.663-0.39-2.394
		C64.143,51.327,63.749,50.695,63.239,50.16z M57.047,51.162c0.582-0.321,1.297-0.484,2.148-0.484c0.534,0,1.029,0.118,1.485,0.354
		c0.455,0.236,0.833,0.559,1.132,0.967c0.297,0.409,0.47,0.872,0.518,1.391v0.165h-6.919c0.074-0.356,0.175-0.687,0.315-0.979
		C56.026,51.956,56.466,51.484,57.047,51.162z"/>
	<rect x="67.496" y="43.651" width="2.43" height="17.452"/>
	<polygon points="77.259,45.561 74.829,45.561 74.829,48.722 72.259,48.722 72.259,51.079 74.829,51.079 74.829,61.103 
		77.259,61.103 77.259,51.079 80.136,51.079 80.136,48.722 77.259,48.722 	"/>
	<path d="M89.596,48.934c-0.693-0.315-1.51-0.472-2.453-0.472c-0.99,0-1.915,0.197-2.771,0.59c-0.858,0.393-1.654,0.99-2.393,1.792
		l1.58,1.581c0.455-0.582,0.963-1.014,1.52-1.297c0.558-0.283,1.184-0.424,1.875-0.424c0.756,0,1.38,0.216,1.875,0.649
		s0.743,0.994,0.743,1.686v0.542h-2.334c-0.912,0-1.718,0.086-2.418,0.26c-0.699,0.173-1.282,0.424-1.745,0.754
		c-0.464,0.33-0.814,0.747-1.05,1.25c-0.236,0.503-0.353,1.084-0.353,1.745c0,0.755,0.184,1.412,0.555,1.969
		c0.368,0.558,0.867,0.995,1.497,1.309c0.628,0.315,1.343,0.472,2.146,0.472c0.614,0,1.203-0.119,1.77-0.354
		c0.566-0.236,1.092-0.558,1.58-0.966c0.128-0.107,0.236-0.233,0.353-0.35v1.435h2.194v-8.585c0-0.865-0.188-1.6-0.566-2.205
		C90.822,49.708,90.286,49.248,89.596,48.934z M88.947,58.155c-0.401,0.346-0.858,0.617-1.368,0.814
		c-0.51,0.197-1.05,0.295-1.616,0.295c-0.393,0-0.739-0.071-1.036-0.212c-0.299-0.142-0.535-0.342-0.708-0.602
		c-0.173-0.259-0.259-0.561-0.259-0.908c0-0.33,0.061-0.617,0.188-0.861c0.127-0.244,0.319-0.456,0.578-0.637
		c0.259-0.18,0.574-0.314,0.944-0.4c0.368-0.086,0.789-0.13,1.261-0.13h2.641v1.955C89.393,57.71,89.193,57.943,88.947,58.155z"/>
	<path d="M101.055,48.462c-0.582,0-1.144,0.142-1.687,0.425c-0.541,0.283-1.021,0.668-1.438,1.155
		c-0.277,0.323-0.48,0.68-0.649,1.051v-2.372h-2.453v12.381h2.453v-6.839c0-0.456,0.086-0.876,0.259-1.262
		c0.173-0.385,0.405-0.723,0.695-1.014c0.292-0.291,0.63-0.518,1.015-0.683c0.384-0.165,0.789-0.248,1.215-0.248
		c0.219,0,0.443,0.027,0.672,0.083c0.227,0.055,0.436,0.122,0.624,0.201l0.637-2.642c-0.142-0.062-0.334-0.118-0.578-0.165
		C101.577,48.486,101.322,48.462,101.055,48.462z"/>
	<path d="M113.425,50.16c-0.51-0.535-1.113-0.956-1.804-1.262c-0.693-0.307-1.439-0.46-2.24-0.46c-0.912,0-1.758,0.161-2.535,0.483
		c-0.779,0.322-1.447,0.779-2.006,1.368c-0.558,0.589-0.994,1.285-1.309,2.087c-0.315,0.801-0.47,1.69-0.47,2.665
		c0,1.226,0.278,2.311,0.837,3.254c0.557,0.943,1.328,1.687,2.311,2.229s2.111,0.814,3.384,0.814c0.582,0,1.177-0.083,1.781-0.248
		s1.178-0.39,1.722-0.673c0.543-0.283,1.002-0.613,1.38-0.99l-1.226-1.722c-0.614,0.534-1.184,0.904-1.71,1.108
		c-0.528,0.204-1.096,0.307-1.71,0.307c-0.864,0-1.628-0.173-2.288-0.519c-0.66-0.345-1.171-0.838-1.532-1.474
		c-0.274-0.481-0.443-1.028-0.51-1.639h9.471l0.023-1.037c0.015-0.865-0.113-1.663-0.39-2.394
		C114.329,51.327,113.935,50.695,113.425,50.16z M107.233,51.162c0.582-0.321,1.297-0.484,2.148-0.484
		c0.534,0,1.029,0.118,1.485,0.354c0.455,0.236,0.833,0.559,1.132,0.967c0.297,0.409,0.47,0.872,0.518,1.391v0.165h-6.919
		c0.074-0.356,0.175-0.687,0.315-0.979C106.212,51.956,106.652,51.484,107.233,51.162z"/>
	<path d="M126.055,56.339c-0.127-0.393-0.347-0.739-0.662-1.038c-0.297-0.314-0.702-0.593-1.213-0.837
		c-0.512-0.244-1.161-0.467-1.946-0.673c-0.535-0.126-0.975-0.259-1.32-0.4c-0.347-0.142-0.606-0.275-0.779-0.401
		c-0.157-0.126-0.278-0.279-0.365-0.46c-0.086-0.181-0.138-0.373-0.154-0.578c0-0.236,0.048-0.448,0.142-0.637
		c0.094-0.189,0.23-0.345,0.413-0.472c0.18-0.126,0.405-0.22,0.672-0.282c0.267-0.063,0.566-0.095,0.896-0.095
		c0.297,0,0.628,0.063,0.99,0.189c0.361,0.126,0.72,0.302,1.073,0.531c0.353,0.227,0.679,0.491,0.979,0.79l1.391-1.532
		c-0.33-0.409-0.739-0.763-1.226-1.061c-0.487-0.298-1.017-0.527-1.591-0.684c-0.576-0.157-1.153-0.236-1.735-0.236
		c-0.833,0-1.583,0.154-2.251,0.46c-0.668,0.307-1.2,0.728-1.593,1.262c-0.392,0.534-0.589,1.148-0.589,1.84
		c0,0.425,0.056,0.814,0.165,1.168c0.109,0.353,0.284,0.68,0.52,0.979c0.313,0.377,0.762,0.715,1.344,1.013
		c0.581,0.299,1.328,0.566,2.24,0.802c0.535,0.141,0.971,0.279,1.309,0.413c0.338,0.133,0.585,0.256,0.743,0.366
		c0.299,0.251,0.449,0.582,0.449,0.99c0,0.236-0.048,0.452-0.142,0.649s-0.232,0.366-0.413,0.507
		c-0.18,0.142-0.393,0.248-0.637,0.319c-0.244,0.071-0.507,0.107-0.789,0.107c-0.708,0-1.342-0.122-1.898-0.366
		c-0.558-0.244-1.075-0.641-1.545-1.191l-1.651,1.414c0.549,0.708,1.242,1.243,2.075,1.604s1.768,0.542,2.806,0.542
		c0.833,0,1.587-0.157,2.265-0.472c0.676-0.314,1.215-0.75,1.616-1.309c0.399-0.558,0.601-1.191,0.601-1.898
		C126.243,57.172,126.18,56.732,126.055,56.339z"/>
</g>
<g>
	<path d="M29.099,17.403c-0.029-0.303-0.073-0.612-0.13-0.93H15.565v4.626h8.604v0.259c0,0.894-0.215,1.737-0.647,2.53
		c-0.434,0.793-1.038,1.491-1.818,2.097c-0.777,0.606-1.672,1.075-2.679,1.406c-1.01,0.331-2.077,0.497-3.199,0.497
		c-1.499,0-2.919-0.288-4.259-0.865c-1.342-0.577-2.524-1.369-3.547-2.379c-1.023-1.009-1.823-2.183-2.399-3.524
		c-0.578-1.34-0.866-2.759-0.866-4.259c0-1.557,0.274-2.99,0.821-4.302c0.549-1.311,1.32-2.457,2.315-3.437
		c0.994-0.979,2.146-1.744,3.458-2.292c1.311-0.547,2.745-0.821,4.301-0.821c1.441,0,2.862,0.318,4.259,0.952
		c1.399,0.634,2.746,1.571,4.044,2.81l3.027-3.156c-0.75-1.009-1.716-1.902-2.898-2.68c-1.182-0.778-2.501-1.384-3.956-1.817
		c-1.455-0.432-2.948-0.649-4.476-0.649c-2.19,0-4.236,0.39-6.138,1.168C7.61,3.415,5.946,4.503,4.52,5.902
		C3.092,7.3,1.983,8.935,1.19,10.809C0.397,12.682,0,14.7,0,16.861c0,2.191,0.397,4.231,1.19,6.119
		c0.793,1.888,1.91,3.538,3.351,4.951c1.441,1.413,3.113,2.515,5.015,3.308c1.902,0.793,3.948,1.188,6.14,1.188
		c1.902,0,3.668-0.324,5.297-0.972c1.628-0.649,3.054-1.563,4.28-2.745c1.224-1.182,2.184-2.587,2.875-4.216
		c0.693-1.628,1.038-3.437,1.038-5.427c0-0.259-0.008-0.525-0.023-0.799C29.149,17.994,29.126,17.705,29.099,17.403z"/>
	<rect x="34.243" width="4.453" height="31.995"/>
	<path d="M60.682,10.354C58.938,9.332,56.97,8.82,54.781,8.82c-2.221,0-4.201,0.512-5.946,1.534
		c-1.745,1.024-3.121,2.422-4.128,4.194c-1.01,1.772-1.514,3.798-1.514,6.074c0,2.277,0.505,4.302,1.514,6.075
		c1.008,1.772,2.384,3.171,4.128,4.194c1.745,1.024,3.725,1.534,5.946,1.534c2.19,0,4.157-0.511,5.902-1.534
		c1.743-1.023,3.119-2.421,4.128-4.194c1.01-1.773,1.514-3.798,1.514-6.075c0-2.276-0.505-4.302-1.514-6.074
		S62.425,11.378,60.682,10.354z M60.92,24.58c-0.607,1.167-1.443,2.09-2.508,2.767c-1.067,0.678-2.278,1.016-3.631,1.016
		c-1.355,0-2.574-0.338-3.654-1.016c-1.081-0.677-1.923-1.6-2.53-2.767c-0.605-1.168-0.894-2.486-0.864-3.956
		c-0.031-1.47,0.259-2.789,0.864-3.956c0.607-1.168,1.449-2.09,2.53-2.768c1.081-0.677,2.299-1.016,3.654-1.016
		c1.353,0,2.564,0.332,3.631,0.995c1.065,0.663,1.902,1.578,2.508,2.745c0.605,1.167,0.892,2.501,0.864,3.999
		C61.813,22.093,61.525,23.412,60.92,24.58z"/>
	<path d="M88.419,10.333C86.834,9.325,85.016,8.82,82.97,8.82c-0.923,0-1.831,0.152-2.723,0.454
		c-0.894,0.302-1.724,0.706-2.485,1.211c-0.766,0.505-1.391,1.066-1.881,1.686c-0.096,0.12-0.179,0.242-0.261,0.365V0h-4.453v31.865
		h4.453v-2.897c0.522,0.622,1.16,1.193,1.925,1.708c0.793,0.534,1.672,0.959,2.637,1.275c0.965,0.318,1.938,0.475,2.919,0.475
		c1.988,0,3.775-0.511,5.36-1.534c1.585-1.023,2.833-2.428,3.741-4.216c0.908-1.787,1.363-3.819,1.363-6.096
		c0-2.276-0.463-4.302-1.384-6.074C91.258,12.733,90.002,11.343,88.419,10.333z M88.375,24.58c-0.605,1.167-1.426,2.09-2.464,2.767
		c-1.038,0.678-2.221,1.016-3.545,1.016c-1.355,0-2.551-0.338-3.589-1.016c-1.038-0.677-1.86-1.6-2.464-2.767
		c-0.607-1.168-0.908-2.501-0.908-4c0-1.47,0.301-2.789,0.908-3.956c0.605-1.168,1.426-2.082,2.464-2.745s2.234-0.995,3.589-0.995
		c1.355,0,2.551,0.332,3.589,0.995c1.036,0.663,1.85,1.578,2.441,2.745c0.591,1.167,0.887,2.485,0.887,3.956
		C89.283,22.079,88.981,23.412,88.375,24.58z"/>
	<path d="M111.895,9.684c-1.269-0.576-2.768-0.865-4.497-0.865c-1.816,0-3.51,0.361-5.08,1.081
		c-1.572,0.722-3.034,1.817-4.389,3.287l2.898,2.896c0.835-1.066,1.764-1.859,2.789-2.378c1.023-0.518,2.169-0.778,3.437-0.778
		c1.384,0,2.53,0.397,3.437,1.189c0.908,0.794,1.361,1.823,1.361,3.092v0.994h-4.28c-1.672,0-3.149,0.159-4.432,0.476
		c-1.284,0.318-2.349,0.778-3.199,1.384c-0.85,0.605-1.491,1.369-1.925,2.292c-0.432,0.922-0.649,1.988-0.649,3.199
		c0,1.383,0.34,2.587,1.017,3.61c0.676,1.023,1.591,1.823,2.745,2.399c1.153,0.577,2.464,0.865,3.934,0.865
		c1.125,0,2.205-0.215,3.244-0.648s2.004-1.023,2.896-1.773c0.235-0.197,0.433-0.427,0.649-0.642v2.632h4.021V16.257
		c0-1.585-0.345-2.933-1.036-4.043C114.142,11.105,113.162,10.261,111.895,9.684z M110.705,26.59
		c-0.735,0.634-1.572,1.131-2.507,1.491c-0.938,0.361-1.925,0.541-2.963,0.541c-0.72,0-1.355-0.13-1.902-0.39
		s-0.981-0.627-1.297-1.103c-0.317-0.475-0.474-1.03-0.474-1.664c0-0.605,0.113-1.131,0.345-1.579
		c0.23-0.446,0.583-0.836,1.059-1.168c0.476-0.33,1.052-0.576,1.729-0.734c0.677-0.158,1.449-0.238,2.313-0.238h4.842v3.608
		C111.527,25.793,111.15,26.206,110.705,26.59z"/>
	<rect x="121.58" width="4.453" height="31.995"/>
	<path d="M172.598,20.537c-0.232,0.75-0.411,1.341-0.541,1.772c-0.129,0.433-0.223,0.786-0.28,1.059
		c-0.06,0.274-0.115,0.556-0.173,0.844c-0.013,0.062-0.027,0.142-0.04,0.211c-0.154-0.582-0.315-1.164-0.501-1.747
		c-0.217-0.677-0.468-1.362-0.756-2.054l-5.276-13.662h-4.193l-5.447,13.662c-0.117,0.318-0.246,0.7-0.39,1.146
		c-0.144,0.447-0.34,1.088-0.583,1.924c-0.082,0.278-0.177,0.609-0.279,0.963c-0.114-0.57-0.227-1.136-0.348-1.741
		c-0.173-0.865-0.374-1.614-0.605-2.248l-5.838-18.937h-4.971l9.64,30.265h3.157l7.54-18.384l7.766,18.384h3.242l9.642-30.265
		h-5.015L172.598,20.537z"/>
	<path d="M199.924,9.684c-1.269-0.576-2.768-0.865-4.497-0.865c-1.816,0-3.51,0.361-5.08,1.081
		c-1.572,0.722-3.034,1.817-4.389,3.287l2.898,2.896c0.835-1.066,1.764-1.859,2.789-2.378c1.023-0.518,2.169-0.778,3.437-0.778
		c1.384,0,2.53,0.397,3.437,1.189c0.908,0.794,1.361,1.823,1.361,3.092v0.994h-4.28c-1.672,0-3.149,0.159-4.432,0.476
		c-1.284,0.318-2.349,0.778-3.199,1.384c-0.85,0.605-1.491,1.369-1.925,2.292c-0.432,0.922-0.649,1.988-0.649,3.199
		c0,1.383,0.34,2.587,1.017,3.61c0.676,1.023,1.591,1.823,2.745,2.399c1.153,0.577,2.464,0.865,3.934,0.865
		c1.125,0,2.205-0.215,3.244-0.648c1.038-0.433,2.004-1.023,2.896-1.773c0.235-0.197,0.433-0.427,0.649-0.642v2.632h4.021V16.257
		c0-1.585-0.345-2.933-1.036-4.043C202.172,11.105,201.191,10.261,199.924,9.684z M198.735,26.59
		c-0.735,0.634-1.572,1.131-2.507,1.491c-0.939,0.361-1.925,0.541-2.963,0.541c-0.72,0-1.355-0.13-1.902-0.39
		c-0.547-0.259-0.981-0.627-1.297-1.103c-0.317-0.475-0.474-1.03-0.474-1.664c0-0.605,0.113-1.131,0.345-1.579
		c0.23-0.446,0.583-0.836,1.059-1.168c0.476-0.33,1.052-0.576,1.729-0.734c0.677-0.158,1.449-0.238,2.313-0.238h4.842v3.608
		C199.557,25.793,199.18,26.206,198.735,26.59z"/>
	<polygon points="216.787,3.502 212.332,3.502 212.332,9.296 207.621,9.296 207.621,13.619 212.332,13.619 212.332,31.995 
		216.787,31.995 216.787,13.619 222.061,13.619 222.061,9.296 216.787,9.296 	"/>
	<path d="M243.527,11.933c-0.937-0.98-2.04-1.751-3.307-2.313c-1.269-0.562-2.637-0.844-4.107-0.844
		c-1.674,0-3.222,0.296-4.648,0.887c-1.428,0.591-2.652,1.426-3.675,2.507c-1.023,1.081-1.823,2.356-2.399,3.826
		c-0.578,1.47-0.866,3.1-0.866,4.886c0,2.248,0.512,4.237,1.535,5.966c1.023,1.73,2.436,3.092,4.238,4.086
		c1.8,0.994,3.869,1.491,6.203,1.491c1.067,0,2.155-0.152,3.265-0.454c1.109-0.302,2.163-0.713,3.157-1.232
		c0.994-0.518,1.837-1.124,2.53-1.816l-2.249-3.156c-1.125,0.98-2.169,1.658-3.134,2.032s-2.011,0.561-3.134,0.561
		c-1.585,0-2.984-0.317-4.195-0.951c-1.209-0.633-2.148-1.534-2.81-2.702c-0.502-0.882-0.812-1.884-0.934-3.005h17.364l0.042-1.903
		c0.029-1.584-0.209-3.048-0.712-4.388C245.186,14.073,244.464,12.914,243.527,11.933z M232.179,13.77
		c1.065-0.59,2.378-0.887,3.934-0.887c0.979,0,1.887,0.217,2.723,0.649c0.835,0.433,1.528,1.024,2.075,1.772
		c0.547,0.75,0.866,1.6,0.952,2.552v0.302H229.17c0.137-0.656,0.329-1.257,0.587-1.794C230.304,15.226,231.112,14.362,232.179,13.77
		z"/>
	<path d="M262.658,8.82c-1.065,0-2.096,0.259-3.09,0.778c-0.994,0.519-1.875,1.225-2.639,2.119
		c-0.493,0.576-0.882,1.199-1.188,1.859v-4.28h-4.497v22.699h4.497V19.456c0-0.836,0.157-1.606,0.476-2.314
		c0.317-0.705,0.741-1.325,1.274-1.859c0.534-0.534,1.153-0.951,1.86-1.254c0.706-0.302,1.449-0.454,2.226-0.454
		c0.403,0,0.814,0.051,1.232,0.152s0.8,0.224,1.146,0.368l1.169-4.842c-0.261-0.115-0.614-0.217-1.059-0.303
		C263.618,8.863,263.15,8.82,262.658,8.82z"/>
	<path d="M308.923,20.537c-0.232,0.75-0.411,1.341-0.541,1.772c-0.129,0.433-0.223,0.786-0.28,1.059
		c-0.06,0.274-0.115,0.556-0.173,0.844c-0.013,0.062-0.027,0.142-0.04,0.211c-0.154-0.582-0.315-1.164-0.501-1.747
		c-0.217-0.677-0.468-1.362-0.756-2.054l-5.276-13.662h-4.194l-5.447,13.662c-0.117,0.318-0.246,0.7-0.39,1.146
		c-0.144,0.447-0.34,1.088-0.583,1.924c-0.082,0.278-0.177,0.609-0.279,0.963c-0.114-0.57-0.227-1.136-0.348-1.741
		c-0.173-0.865-0.374-1.614-0.605-2.248l-5.838-18.937h-4.971l9.64,30.265h3.157l7.54-18.385l7.766,18.385h3.242l9.642-30.265
		h-5.015L308.923,20.537z"/>
	<path d="M336.247,9.684c-1.269-0.576-2.768-0.865-4.497-0.865c-1.816,0-3.51,0.361-5.08,1.081
		c-1.572,0.722-3.034,1.817-4.389,3.287l2.898,2.896c0.835-1.066,1.764-1.859,2.789-2.378c1.023-0.518,2.169-0.778,3.437-0.778
		c1.384,0,2.53,0.397,3.437,1.189c0.908,0.794,1.361,1.823,1.361,3.092v0.994h-4.28c-1.672,0-3.149,0.159-4.432,0.476
		c-1.284,0.318-2.349,0.778-3.199,1.384c-0.85,0.605-1.491,1.369-1.925,2.292c-0.432,0.922-0.649,1.988-0.649,3.199
		c0,1.383,0.34,2.587,1.017,3.61c0.676,1.023,1.591,1.823,2.745,2.399c1.154,0.577,2.464,0.865,3.934,0.865
		c1.125,0,2.205-0.215,3.244-0.648c1.038-0.433,2.004-1.023,2.896-1.773c0.235-0.197,0.433-0.427,0.649-0.642v2.632h4.021V16.257
		c0-1.585-0.346-2.933-1.036-4.043C338.495,11.105,337.514,10.261,336.247,9.684z M335.058,26.59
		c-0.735,0.634-1.572,1.131-2.506,1.491c-0.939,0.361-1.925,0.541-2.963,0.541c-0.72,0-1.355-0.13-1.902-0.39
		c-0.547-0.259-0.981-0.627-1.297-1.103c-0.317-0.475-0.474-1.03-0.474-1.664c0-0.605,0.113-1.131,0.345-1.579
		c0.23-0.446,0.583-0.836,1.059-1.168c0.476-0.33,1.052-0.576,1.729-0.734c0.677-0.158,1.449-0.238,2.313-0.238h4.842v3.608
		C335.88,25.793,335.503,26.206,335.058,26.59z"/>
	<polygon points="353.11,3.502 348.655,3.502 348.655,9.296 343.944,9.296 343.944,13.619 348.655,13.619 348.655,31.995 
		353.11,31.995 353.11,13.619 358.384,13.619 358.384,9.296 353.11,9.296 	"/>
	<path d="M368.61,13.857c1.081-0.677,2.313-1.016,3.696-1.016c0.748,0,1.528,0.159,2.336,0.476c0.806,0.318,1.57,0.749,2.292,1.296
		c0.72,0.548,1.311,1.153,1.771,1.817l2.464-3.027c-0.864-1.412-2.125-2.53-3.783-3.351c-1.658-0.821-3.495-1.232-5.512-1.232
		c-2.105,0-3.986,0.519-5.643,1.556c-1.658,1.037-2.969,2.45-3.934,4.237c-0.967,1.788-1.449,3.791-1.449,6.01
		c0,2.221,0.482,4.223,1.449,6.01c0.965,1.788,2.276,3.199,3.934,4.238c1.656,1.037,3.537,1.556,5.643,1.556
		c1.844,0,3.624-0.418,5.339-1.253c1.714-0.836,3.032-1.903,3.956-3.199l-2.464-3.027c-0.605,0.749-1.253,1.384-1.946,1.902
		c-0.691,0.519-1.405,0.909-2.14,1.168s-1.491,0.389-2.269,0.389c-1.326,0-2.537-0.345-3.633-1.037
		c-1.096-0.692-1.975-1.622-2.637-2.789c-0.664-1.168-0.994-2.486-0.994-3.956c0-1.47,0.317-2.795,0.95-3.978
		C366.671,15.464,367.529,14.534,368.61,13.857z"/>
	<path d="M404.173,12.927c-0.578-1.383-1.441-2.413-2.595-3.091c-1.154-0.677-2.595-1.016-4.324-1.016
		c-1.211,0-2.393,0.267-3.545,0.8c-1.153,0.534-2.148,1.225-2.984,2.075c-0.356,0.363-0.651,0.742-0.908,1.133V0h-4.453v31.995
		c0.374,0,0.748,0,1.125,0c0.374,0,0.749,0,1.123,0h2.205V18.245c0-0.749,0.152-1.448,0.455-2.097
		c0.303-0.649,0.72-1.218,1.253-1.708c0.534-0.489,1.161-0.871,1.881-1.146c0.72-0.273,1.514-0.411,2.378-0.411
		c1.067-0.058,1.96,0.108,2.681,0.497c0.72,0.39,1.253,1.01,1.601,1.86c0.345,0.85,0.518,1.924,0.518,3.22v13.534h4.453V18.159
		C405.037,16.055,404.749,14.311,404.173,12.927z"/>
</g>
</svg>
