<?xml version="1.0" encoding="utf-8"?>
<!-- Generator: Adobe Illustrator 26.0.3, SVG Export Plug-In . SVG Version: 6.00 Build 0)  -->
<svg version="1.1" id="Layer_1" xmlns="http://www.w3.org/2000/svg" xmlns:xlink="http://www.w3.org/1999/xlink" x="0px" y="0px"
	 viewBox="0 0 403 66" style="enable-background:new 0 0 403 66;" xml:space="preserve">
<g>
	<g>
		<path d="M15.62,33.6c-2.18,0-4.21-0.39-6.07-1.15c-1.86-0.77-3.49-1.84-4.89-3.21c-1.4-1.37-2.48-2.97-3.23-4.81
			c-0.76-1.83-1.13-3.83-1.13-5.99c0-2.13,0.39-4.1,1.18-5.92c0.78-1.82,1.87-3.42,3.25-4.79C6.1,6.35,7.74,5.29,9.63,4.53
			c1.89-0.76,3.93-1.13,6.11-1.13c1.51,0,2.98,0.21,4.41,0.63c1.43,0.42,2.72,1.01,3.89,1.76c1.16,0.76,2.12,1.61,2.88,2.56
			l-3.44,3.57c-1.18-1.12-2.41-1.97-3.7-2.56c-1.29-0.59-2.65-0.88-4.07-0.88c-1.4,0-2.7,0.25-3.89,0.76
			c-1.19,0.5-2.24,1.2-3.15,2.1c-0.91,0.9-1.61,1.95-2.1,3.15c-0.49,1.2-0.73,2.52-0.73,3.95c0,1.4,0.26,2.71,0.78,3.93
			c0.52,1.22,1.25,2.29,2.18,3.21c0.94,0.92,2.02,1.65,3.23,2.16c1.22,0.52,2.51,0.78,3.89,0.78c1.04,0,2-0.15,2.9-0.44
			c0.9-0.29,1.69-0.71,2.39-1.26c0.7-0.55,1.24-1.18,1.62-1.91c0.38-0.73,0.57-1.5,0.57-2.31v-0.92l0.76,0.84h-8.69v-4.87h13.31
			c0.06,0.31,0.1,0.65,0.13,1.03c0.03,0.38,0.05,0.74,0.06,1.07c0.01,0.34,0.02,0.63,0.02,0.88c0,1.93-0.34,3.69-1.03,5.27
			c-0.69,1.58-1.63,2.95-2.83,4.1c-1.2,1.15-2.61,2.04-4.22,2.67C19.28,33.28,17.52,33.6,15.62,33.6z"/>
		<path d="M33.8,33.18V2.1h5.12v31.08H33.8z"/>
		<path d="M55.14,33.6c-2.21,0-4.19-0.5-5.92-1.49c-1.74-0.99-3.1-2.36-4.1-4.1c-0.99-1.74-1.49-3.71-1.49-5.92s0.5-4.19,1.49-5.92
			c0.99-1.74,2.36-3.1,4.1-4.1c1.74-0.99,3.71-1.49,5.92-1.49c2.18,0,4.14,0.5,5.88,1.49c1.74,0.99,3.1,2.36,4.1,4.1
			c0.99,1.74,1.49,3.71,1.49,5.92s-0.5,4.19-1.49,5.92c-0.99,1.74-2.36,3.1-4.1,4.1C59.28,33.1,57.32,33.6,55.14,33.6z M55.14,29.02
			c1.2,0,2.28-0.3,3.23-0.9c0.95-0.6,1.7-1.43,2.25-2.48c0.55-1.05,0.8-2.23,0.78-3.55c0.03-1.34-0.23-2.54-0.78-3.59
			c-0.55-1.05-1.3-1.87-2.25-2.46c-0.95-0.59-2.03-0.88-3.23-0.88c-1.2,0-2.29,0.3-3.25,0.9c-0.97,0.6-1.72,1.43-2.25,2.48
			c-0.53,1.05-0.8,2.23-0.8,3.55c0,1.32,0.27,2.5,0.8,3.55c0.53,1.05,1.28,1.88,2.25,2.48C52.85,28.72,53.93,29.02,55.14,29.02z"/>
		<path d="M83.4,33.6c-0.98,0-1.93-0.15-2.86-0.44c-0.92-0.29-1.77-0.69-2.54-1.2c-0.77-0.5-1.41-1.07-1.91-1.7
			s-0.84-1.27-1.01-1.91l1.22-0.55l-0.13,5.25h-4.96V2.1h5.12v14.03l-0.88-0.38c0.14-0.67,0.45-1.31,0.92-1.91
			c0.48-0.6,1.08-1.15,1.81-1.64c0.73-0.49,1.53-0.88,2.39-1.18c0.87-0.29,1.76-0.44,2.69-0.44c1.96,0,3.7,0.5,5.23,1.49
			c1.53,0.99,2.73,2.35,3.61,4.07c0.88,1.72,1.32,3.7,1.32,5.94c0,2.21-0.43,4.19-1.3,5.92c-0.87,1.74-2.06,3.1-3.59,4.1
			C87.02,33.1,85.31,33.6,83.4,33.6z M82.35,29.06c1.18,0,2.23-0.3,3.15-0.9c0.92-0.6,1.65-1.43,2.18-2.48
			c0.53-1.05,0.8-2.25,0.8-3.59c0-1.37-0.26-2.58-0.78-3.63c-0.52-1.05-1.24-1.87-2.16-2.46c-0.92-0.59-1.99-0.88-3.19-0.88
			c-1.23,0-2.31,0.29-3.23,0.88c-0.92,0.59-1.65,1.41-2.18,2.46c-0.53,1.05-0.8,2.26-0.8,3.63c0,1.34,0.27,2.54,0.8,3.59
			c0.53,1.05,1.26,1.88,2.18,2.48C80.04,28.76,81.12,29.06,82.35,29.06z"/>
		<path d="M104.4,33.6c-1.43,0-2.7-0.28-3.82-0.84c-1.12-0.56-2.01-1.34-2.67-2.33c-0.66-0.99-0.99-2.16-0.99-3.51
			c0-1.18,0.21-2.21,0.63-3.09c0.42-0.88,1.04-1.62,1.87-2.2c0.83-0.59,1.86-1.03,3.11-1.32c1.25-0.29,2.68-0.44,4.3-0.44h6.34
			l-0.38,3.7h-6.26c-0.76,0-1.43,0.07-2.02,0.21c-0.59,0.14-1.09,0.35-1.51,0.63c-0.42,0.28-0.73,0.61-0.92,0.99
			c-0.2,0.38-0.29,0.83-0.29,1.37c0,0.56,0.14,1.04,0.42,1.45c0.28,0.41,0.66,0.72,1.13,0.94c0.48,0.22,1.04,0.34,1.68,0.34
			c0.92,0,1.8-0.15,2.62-0.46c0.83-0.31,1.56-0.74,2.21-1.3c0.64-0.56,1.15-1.19,1.51-1.89l1.05,2.86
			c-0.59,0.98-1.31,1.83-2.16,2.56c-0.85,0.73-1.78,1.3-2.77,1.72C106.49,33.39,105.47,33.6,104.4,33.6z M110.7,33.18V19.02
			c0-1.2-0.4-2.15-1.2-2.83c-0.8-0.69-1.83-1.03-3.09-1.03c-1.18,0-2.24,0.23-3.19,0.69c-0.95,0.46-1.83,1.2-2.65,2.21l-3.19-3.19
			c1.32-1.4,2.77-2.46,4.37-3.19c1.6-0.73,3.32-1.09,5.17-1.09c1.76,0,3.28,0.28,4.56,0.84c1.27,0.56,2.26,1.39,2.96,2.5
			c0.7,1.11,1.05,2.46,1.05,4.05v15.2H110.7z"/>
		<path d="M120.99,33.18V2.1h5.12v31.08H120.99z"/>
		<path d="M151.48,33.18l-9.2-29.4h5.63l5.29,17.43c0.22,0.7,0.42,1.48,0.59,2.35c0.17,0.87,0.32,1.69,0.46,2.48
			c0.14,0.78,0.24,1.4,0.29,1.85h-1.13c0.36-1.34,0.64-2.42,0.84-3.23c0.2-0.81,0.36-1.48,0.5-2.02c0.14-0.53,0.29-1.02,0.46-1.47
			l5-12.73h4.62l4.87,12.73c0.31,0.76,0.57,1.49,0.78,2.21c0.21,0.71,0.39,1.41,0.55,2.08c0.15,0.67,0.3,1.37,0.44,2.1l-1.01,0.25
			c0.11-0.67,0.2-1.22,0.25-1.66c0.06-0.43,0.11-0.81,0.17-1.13c0.06-0.32,0.11-0.64,0.17-0.97c0.06-0.32,0.14-0.71,0.25-1.18
			s0.28-1.06,0.5-1.79l5.17-17.3h5.67l-9.2,29.4h-3.95l-7.52-17.89l0.55,0.13l-7.14,17.77H151.48z"/>
		<path d="M192.77,33.6c-1.43,0-2.7-0.28-3.82-0.84c-1.12-0.56-2.01-1.34-2.67-2.33c-0.66-0.99-0.99-2.16-0.99-3.51
			c0-1.18,0.21-2.21,0.63-3.09c0.42-0.88,1.04-1.62,1.87-2.2c0.83-0.59,1.86-1.03,3.11-1.32c1.25-0.29,2.68-0.44,4.3-0.44h6.34
			l-0.38,3.7h-6.26c-0.76,0-1.43,0.07-2.02,0.21c-0.59,0.14-1.09,0.35-1.51,0.63c-0.42,0.28-0.73,0.61-0.92,0.99
			c-0.2,0.38-0.29,0.83-0.29,1.37c0,0.56,0.14,1.04,0.42,1.45c0.28,0.41,0.66,0.72,1.13,0.94c0.48,0.22,1.04,0.34,1.68,0.34
			c0.92,0,1.8-0.15,2.62-0.46c0.83-0.31,1.56-0.74,2.21-1.3c0.64-0.56,1.15-1.19,1.51-1.89l1.05,2.86
			c-0.59,0.98-1.31,1.83-2.16,2.56c-0.85,0.73-1.78,1.3-2.77,1.72C194.86,33.39,193.83,33.6,192.77,33.6z M199.07,33.18V19.02
			c0-1.2-0.4-2.15-1.2-2.83c-0.8-0.69-1.83-1.03-3.09-1.03c-1.18,0-2.24,0.23-3.19,0.69c-0.95,0.46-1.83,1.2-2.65,2.21l-3.19-3.19
			c1.32-1.4,2.77-2.46,4.37-3.19c1.6-0.73,3.32-1.09,5.17-1.09c1.76,0,3.28,0.28,4.56,0.84c1.27,0.56,2.26,1.39,2.96,2.5
			c0.7,1.11,1.05,2.46,1.05,4.05v15.2H199.07z"/>
		<path d="M207.39,15.83v-4.79h14.32v4.79H207.39z M211.75,33.18V5.41h5.12v27.76H211.75z"/>
		<path d="M236.03,33.6c-2.32,0-4.38-0.48-6.15-1.45c-1.78-0.97-3.16-2.3-4.16-3.99c-0.99-1.69-1.49-3.65-1.49-5.86
			c0-1.74,0.28-3.32,0.84-4.75c0.56-1.43,1.34-2.67,2.35-3.72c1.01-1.05,2.21-1.86,3.59-2.44c1.39-0.57,2.89-0.86,4.52-0.86
			c1.48,0,2.85,0.28,4.09,0.84c1.25,0.56,2.33,1.32,3.26,2.29c0.92,0.97,1.63,2.11,2.12,3.44c0.49,1.33,0.72,2.78,0.69,4.35
			l-0.04,1.85h-17.89l-1.01-3.57h14.57l-0.63,0.71v-0.97c-0.08-0.84-0.36-1.59-0.84-2.25c-0.48-0.66-1.09-1.18-1.83-1.55
			c-0.74-0.38-1.56-0.57-2.46-0.57c-1.37,0-2.53,0.26-3.49,0.78c-0.95,0.52-1.67,1.28-2.16,2.29c-0.49,1.01-0.74,2.25-0.74,3.74
			c0,1.43,0.3,2.67,0.9,3.74c0.6,1.06,1.46,1.89,2.58,2.48c1.12,0.59,2.42,0.88,3.91,0.88c1.04,0,2-0.17,2.88-0.5
			c0.88-0.34,1.83-0.94,2.83-1.81l2.52,3.53c-0.76,0.7-1.62,1.3-2.58,1.79c-0.97,0.49-1.98,0.88-3.04,1.15
			C238.11,33.46,237.06,33.6,236.03,33.6z"/>
		<path d="M250.27,33.18V11.04h5.04l0.08,7.06l-0.67-1.6c0.31-1.12,0.84-2.13,1.6-3.02c0.76-0.9,1.63-1.6,2.62-2.12
			c0.99-0.52,2.02-0.78,3.09-0.78c0.48,0,0.93,0.04,1.36,0.13c0.43,0.08,0.79,0.18,1.07,0.29l-1.34,5.63
			c-0.34-0.17-0.72-0.3-1.15-0.4c-0.43-0.1-0.88-0.15-1.32-0.15c-0.73,0-1.41,0.13-2.04,0.4c-0.63,0.27-1.18,0.64-1.64,1.11
			c-0.46,0.48-0.83,1.03-1.11,1.66c-0.28,0.63-0.42,1.32-0.42,2.08v11.84H250.27z"/>
		<path d="M287.18,33.18l-9.2-29.4h5.63l5.29,17.43c0.22,0.7,0.42,1.48,0.59,2.35c0.17,0.87,0.32,1.69,0.46,2.48
			c0.14,0.78,0.24,1.4,0.29,1.85h-1.13c0.36-1.34,0.64-2.42,0.84-3.23c0.2-0.81,0.36-1.48,0.5-2.02c0.14-0.53,0.29-1.02,0.46-1.47
			l5-12.73h4.62l4.87,12.73c0.31,0.76,0.57,1.49,0.78,2.21c0.21,0.71,0.39,1.41,0.55,2.08c0.15,0.67,0.3,1.37,0.44,2.1l-1.01,0.25
			c0.11-0.67,0.2-1.22,0.25-1.66c0.06-0.43,0.11-0.81,0.17-1.13c0.06-0.32,0.11-0.64,0.17-0.97c0.06-0.32,0.14-0.71,0.25-1.18
			c0.11-0.46,0.28-1.06,0.5-1.79l5.17-17.3h5.67l-9.2,29.4h-3.95l-7.52-17.89l0.55,0.13l-7.14,17.77H287.18z"/>
		<path d="M328.47,33.6c-1.43,0-2.7-0.28-3.82-0.84c-1.12-0.56-2.01-1.34-2.67-2.33c-0.66-0.99-0.99-2.16-0.99-3.51
			c0-1.18,0.21-2.21,0.63-3.09c0.42-0.88,1.04-1.62,1.87-2.2c0.83-0.59,1.86-1.03,3.11-1.32c1.25-0.29,2.68-0.44,4.3-0.44h6.34
			l-0.38,3.7h-6.26c-0.76,0-1.43,0.07-2.02,0.21c-0.59,0.14-1.09,0.35-1.51,0.63c-0.42,0.28-0.73,0.61-0.92,0.99
			c-0.2,0.38-0.29,0.83-0.29,1.37c0,0.56,0.14,1.04,0.42,1.45c0.28,0.41,0.66,0.72,1.13,0.94c0.48,0.22,1.04,0.34,1.68,0.34
			c0.92,0,1.8-0.15,2.62-0.46c0.83-0.31,1.56-0.74,2.21-1.3c0.64-0.56,1.15-1.19,1.51-1.89l1.05,2.86
			c-0.59,0.98-1.31,1.83-2.16,2.56c-0.85,0.73-1.78,1.3-2.77,1.72S329.53,33.6,328.47,33.6z M334.77,33.18V19.02
			c0-1.2-0.4-2.15-1.2-2.83s-1.83-1.03-3.09-1.03c-1.18,0-2.24,0.23-3.19,0.69c-0.95,0.46-1.83,1.2-2.65,2.21l-3.19-3.19
			c1.32-1.4,2.77-2.46,4.37-3.19c1.6-0.73,3.32-1.09,5.17-1.09c1.76,0,3.28,0.28,4.56,0.84c1.27,0.56,2.26,1.39,2.96,2.5
			c0.7,1.11,1.05,2.46,1.05,4.05v15.2H334.77z"/>
		<path d="M343.09,15.83v-4.79h14.32v4.79H343.09z M347.45,33.18V5.41h5.12v27.76H347.45z"/>
		<path d="M370.85,33.6c-2.07,0-3.93-0.5-5.59-1.51c-1.65-1.01-2.95-2.38-3.91-4.12c-0.95-1.74-1.43-3.7-1.43-5.88
			s0.48-4.14,1.43-5.88c0.95-1.74,2.25-3.11,3.91-4.12s3.51-1.51,5.59-1.51c1.96,0,3.76,0.39,5.4,1.16
			c1.64,0.77,2.89,1.81,3.76,3.13l-2.81,3.44c-0.42-0.59-0.95-1.12-1.6-1.6s-1.34-0.85-2.08-1.13c-0.74-0.28-1.46-0.42-2.16-0.42
			c-1.26,0-2.37,0.3-3.34,0.9c-0.97,0.6-1.73,1.43-2.29,2.48c-0.56,1.05-0.84,2.23-0.84,3.55c0,1.32,0.29,2.49,0.86,3.53
			c0.57,1.04,1.35,1.86,2.33,2.48c0.98,0.62,2.07,0.92,3.28,0.92c0.76,0,1.47-0.12,2.14-0.36c0.67-0.24,1.32-0.58,1.95-1.03
			c0.63-0.45,1.21-1.01,1.74-1.68L380,29.4c-0.92,1.23-2.23,2.24-3.91,3.02C374.42,33.2,372.67,33.6,370.85,33.6z"/>
		<path d="M383.95,33.18V2.1h5.08v13.48l-0.96,0.5c0.31-0.98,0.86-1.88,1.66-2.71c0.8-0.83,1.76-1.5,2.88-2.02
			c1.12-0.52,2.28-0.78,3.49-0.78c1.68,0,3.09,0.34,4.22,1.01c1.13,0.67,1.98,1.68,2.54,3.02c0.56,1.34,0.84,3.02,0.84,5.04v13.52
			h-5.12V20.03c0-1.15-0.15-2.09-0.46-2.83c-0.31-0.74-0.78-1.29-1.43-1.64c-0.64-0.35-1.43-0.5-2.35-0.44
			c-0.76,0-1.46,0.12-2.1,0.36c-0.64,0.24-1.2,0.57-1.66,1.01c-0.46,0.43-0.83,0.94-1.09,1.51c-0.27,0.57-0.4,1.2-0.4,1.87v13.31
			h-2.56c-0.48,0-0.93,0-1.37,0S384.32,33.18,383.95,33.18z"/>
	</g>
</g>
<g>
	<g>
		<path d="M-0.33,60.74v-15.4h6.56c1.01,0,1.87,0.15,2.56,0.44c0.7,0.29,1.22,0.73,1.57,1.31c0.35,0.58,0.53,1.28,0.53,2.1
			c0,0.85-0.22,1.57-0.67,2.16c-0.45,0.59-1.08,0.99-1.9,1.21v-0.44c0.67,0.15,1.27,0.41,1.78,0.78c0.51,0.37,0.91,0.84,1.19,1.39
			c0.28,0.55,0.42,1.18,0.42,1.88c0,0.75-0.12,1.41-0.36,1.98c-0.24,0.57-0.59,1.05-1.06,1.43s-1.01,0.67-1.65,0.87
			c-0.64,0.2-1.36,0.3-2.17,0.3H-0.33z M2.44,51.65h3.54c0.41,0,0.78-0.08,1.1-0.24c0.32-0.16,0.57-0.38,0.75-0.66
			s0.26-0.6,0.26-0.97c0-0.6-0.2-1.06-0.6-1.39c-0.4-0.32-0.99-0.48-1.75-0.48h-3.3V51.65z M2.44,58.16h3.87
			c0.81,0,1.43-0.18,1.88-0.54s0.67-0.88,0.67-1.55c0-0.41-0.11-0.76-0.33-1.06C8.31,54.73,8,54.5,7.61,54.35
			c-0.4-0.15-0.87-0.23-1.41-0.23H2.44V58.16z"/>
		<path d="M16.1,65.8l2.44-5.68l0.02,1.83l-5.72-12.8h3.1l3.21,7.63c0.1,0.19,0.21,0.44,0.31,0.76c0.1,0.32,0.19,0.62,0.26,0.91
			l-0.55,0.2c0.1-0.28,0.21-0.58,0.32-0.9c0.11-0.32,0.22-0.65,0.34-0.97l2.73-7.63h3.12l-4.82,11.59l-1.96,5.06H16.1z"/>
		<path d="M34.31,60.74v-15.4h6.18c1.11,0,2.12,0.18,3.02,0.55c0.9,0.37,1.68,0.9,2.32,1.58c0.65,0.69,1.14,1.5,1.5,2.44
			c0.35,0.94,0.53,1.98,0.53,3.12s-0.18,2.19-0.53,3.14c-0.35,0.95-0.85,1.76-1.48,2.44c-0.64,0.68-1.41,1.21-2.32,1.57
			c-0.91,0.37-1.92,0.55-3.04,0.55H34.31z M37.15,58.52l-0.2-0.42h3.43c0.72,0,1.36-0.12,1.94-0.35c0.57-0.23,1.05-0.57,1.44-1
			c0.39-0.43,0.69-0.96,0.9-1.59c0.21-0.63,0.32-1.33,0.32-2.11c0-0.78-0.11-1.48-0.32-2.1c-0.21-0.62-0.52-1.16-0.91-1.6
			s-0.88-0.78-1.44-1.01c-0.56-0.23-1.21-0.35-1.92-0.35h-3.5l0.26-0.37V58.52z"/>
		<path d="M55.9,60.96c-1.22,0-2.29-0.25-3.22-0.76c-0.93-0.51-1.66-1.2-2.18-2.09c-0.52-0.89-0.78-1.91-0.78-3.07
			c0-0.91,0.15-1.74,0.44-2.49s0.7-1.4,1.23-1.95c0.53-0.55,1.16-0.98,1.88-1.28c0.73-0.3,1.51-0.45,2.36-0.45
			c0.78,0,1.49,0.15,2.15,0.44c0.65,0.29,1.22,0.69,1.71,1.2c0.48,0.51,0.85,1.11,1.11,1.8c0.26,0.7,0.38,1.46,0.36,2.28l-0.02,0.97
			h-9.37l-0.53-1.87h7.63l-0.33,0.37v-0.51c-0.04-0.44-0.19-0.83-0.44-1.18c-0.25-0.34-0.57-0.62-0.96-0.81
			c-0.39-0.2-0.82-0.3-1.29-0.3c-0.72,0-1.33,0.14-1.83,0.41c-0.5,0.27-0.88,0.67-1.13,1.2c-0.26,0.53-0.38,1.18-0.38,1.96
			c0,0.75,0.16,1.4,0.47,1.96c0.32,0.56,0.77,0.99,1.35,1.3s1.27,0.46,2.05,0.46c0.54,0,1.04-0.09,1.51-0.26
			c0.46-0.18,0.96-0.49,1.48-0.95l1.32,1.85c-0.4,0.37-0.85,0.68-1.35,0.94c-0.51,0.26-1.04,0.46-1.6,0.6
			C56.99,60.88,56.44,60.96,55.9,60.96z"/>
		<path d="M63.38,60.74V44.46h2.68v16.28H63.38z"/>
		<path d="M68.26,51.65v-2.51h7.5v2.51H68.26z M70.55,60.74V46.2h2.68v14.54H70.55z"/>
		<path d="M81.15,60.96c-0.75,0-1.42-0.15-2-0.44c-0.59-0.29-1.05-0.7-1.4-1.22s-0.52-1.13-0.52-1.84c0-0.62,0.11-1.16,0.33-1.62
			c0.22-0.46,0.55-0.85,0.98-1.15c0.43-0.31,0.98-0.54,1.63-0.69c0.65-0.15,1.4-0.23,2.26-0.23h3.32l-0.2,1.94h-3.28
			c-0.4,0-0.75,0.04-1.06,0.11c-0.31,0.07-0.57,0.18-0.79,0.33c-0.22,0.15-0.38,0.32-0.48,0.52c-0.1,0.2-0.15,0.44-0.15,0.71
			c0,0.29,0.07,0.55,0.22,0.76c0.15,0.21,0.34,0.38,0.59,0.5c0.25,0.12,0.54,0.18,0.88,0.18c0.48,0,0.94-0.08,1.38-0.24
			c0.43-0.16,0.82-0.39,1.16-0.68c0.34-0.29,0.6-0.62,0.79-0.99l0.55,1.5c-0.31,0.51-0.69,0.96-1.13,1.34
			c-0.45,0.38-0.93,0.68-1.45,0.9C82.25,60.85,81.71,60.96,81.15,60.96z M84.45,60.74v-7.41c0-0.63-0.21-1.13-0.63-1.48
			s-0.96-0.54-1.62-0.54c-0.62,0-1.17,0.12-1.67,0.36c-0.5,0.24-0.96,0.63-1.39,1.16l-1.67-1.67c0.69-0.73,1.45-1.29,2.29-1.67
			c0.84-0.38,1.74-0.57,2.71-0.57c0.92,0,1.72,0.15,2.39,0.44s1.18,0.73,1.55,1.31c0.37,0.58,0.55,1.29,0.55,2.12v7.96H84.45z"/>
		<path d="M89.82,60.74V49.14h2.64l0.04,3.7L92.15,52c0.16-0.59,0.44-1.11,0.84-1.58s0.85-0.84,1.38-1.11
			c0.52-0.27,1.06-0.41,1.62-0.41c0.25,0,0.49,0.02,0.71,0.07c0.23,0.04,0.41,0.1,0.56,0.15l-0.7,2.95
			c-0.18-0.09-0.38-0.16-0.6-0.21c-0.23-0.05-0.46-0.08-0.69-0.08c-0.38,0-0.74,0.07-1.07,0.21c-0.33,0.14-0.62,0.33-0.86,0.58
			c-0.24,0.25-0.44,0.54-0.58,0.87s-0.22,0.69-0.22,1.09v6.2H89.82z"/>
		<path d="M104.52,60.96c-1.22,0-2.29-0.25-3.22-0.76c-0.93-0.51-1.66-1.2-2.18-2.09c-0.52-0.89-0.78-1.91-0.78-3.07
			c0-0.91,0.15-1.74,0.44-2.49s0.7-1.4,1.23-1.95c0.53-0.55,1.16-0.98,1.88-1.28c0.73-0.3,1.51-0.45,2.36-0.45
			c0.78,0,1.49,0.15,2.15,0.44c0.65,0.29,1.22,0.69,1.71,1.2c0.48,0.51,0.85,1.11,1.11,1.8c0.26,0.7,0.38,1.46,0.36,2.28l-0.02,0.97
			h-9.37l-0.53-1.87h7.63l-0.33,0.37v-0.51c-0.04-0.44-0.19-0.83-0.44-1.18c-0.25-0.34-0.57-0.62-0.96-0.81
			c-0.39-0.2-0.82-0.3-1.29-0.3c-0.72,0-1.33,0.14-1.83,0.41c-0.5,0.27-0.88,0.67-1.13,1.2c-0.26,0.53-0.38,1.18-0.38,1.96
			c0,0.75,0.16,1.4,0.47,1.96c0.32,0.56,0.77,0.99,1.35,1.3s1.27,0.46,2.05,0.46c0.54,0,1.04-0.09,1.51-0.26
			c0.46-0.18,0.96-0.49,1.48-0.95l1.32,1.85c-0.4,0.37-0.85,0.68-1.35,0.94c-0.51,0.26-1.04,0.46-1.6,0.6
			C105.61,60.88,105.06,60.96,104.52,60.96z"/>
		<path d="M115.85,60.96c-1.01,0-1.93-0.17-2.74-0.52c-0.81-0.34-1.48-0.84-1.99-1.49l1.74-1.5c0.44,0.48,0.93,0.84,1.47,1.07
			c0.54,0.23,1.11,0.34,1.72,0.34c0.25,0,0.47-0.03,0.67-0.09c0.2-0.06,0.37-0.15,0.52-0.26c0.15-0.12,0.26-0.26,0.34-0.42
			c0.08-0.16,0.12-0.34,0.12-0.53c0-0.35-0.13-0.63-0.4-0.84c-0.15-0.09-0.37-0.19-0.68-0.32c-0.31-0.12-0.71-0.25-1.21-0.36
			c-0.79-0.21-1.46-0.44-1.99-0.71c-0.54-0.27-0.95-0.58-1.24-0.91c-0.25-0.29-0.43-0.61-0.55-0.96c-0.12-0.34-0.18-0.73-0.18-1.15
			c0-0.66,0.19-1.25,0.58-1.76c0.39-0.51,0.91-0.92,1.55-1.21s1.36-0.44,2.16-0.44c0.59,0,1.15,0.07,1.7,0.22
			c0.55,0.15,1.06,0.36,1.53,0.63c0.47,0.27,0.87,0.6,1.21,0.98l-1.5,1.65c-0.26-0.26-0.56-0.5-0.89-0.72
			c-0.33-0.21-0.66-0.38-1-0.49s-0.65-0.18-0.95-0.18c-0.28,0-0.53,0.03-0.75,0.08s-0.4,0.13-0.55,0.23
			c-0.15,0.1-0.26,0.23-0.34,0.38c-0.08,0.15-0.12,0.33-0.12,0.52c0.01,0.19,0.06,0.36,0.14,0.52s0.19,0.28,0.34,0.39
			c0.15,0.1,0.38,0.22,0.7,0.35c0.32,0.13,0.74,0.26,1.25,0.37c0.72,0.19,1.32,0.4,1.8,0.64c0.48,0.23,0.87,0.51,1.14,0.81
			c0.28,0.26,0.48,0.57,0.59,0.92c0.12,0.35,0.18,0.75,0.18,1.19c0,0.69-0.19,1.3-0.58,1.84s-0.91,0.96-1.57,1.26
			C117.43,60.8,116.68,60.96,115.85,60.96z"/>
		<path d="M122.95,64.83l-0.9-1.08c0.54-0.29,0.98-0.63,1.32-1.02c0.34-0.39,0.51-0.72,0.51-1c0-0.15-0.04-0.29-0.11-0.44
			c-0.07-0.15-0.23-0.34-0.48-0.57c-0.31-0.26-0.51-0.5-0.6-0.7c-0.1-0.21-0.14-0.43-0.14-0.68c0-0.4,0.14-0.71,0.42-0.93
			c0.28-0.23,0.63-0.34,1.06-0.34c0.4,0,0.75,0.11,1.07,0.33c0.31,0.22,0.56,0.52,0.74,0.91c0.18,0.39,0.26,0.84,0.26,1.35
			c0,0.45-0.08,0.9-0.23,1.33c-0.15,0.43-0.37,0.83-0.66,1.2s-0.62,0.69-0.99,0.98C123.82,64.45,123.41,64.67,122.95,64.83z"/>
		<path d="M138.73,60.74l-4.82-15.4h2.95l2.77,9.13c0.12,0.37,0.22,0.78,0.31,1.23c0.09,0.46,0.17,0.89,0.24,1.3
			c0.07,0.41,0.12,0.73,0.15,0.97h-0.59c0.19-0.7,0.34-1.27,0.44-1.69c0.1-0.43,0.19-0.78,0.26-1.06c0.07-0.28,0.15-0.54,0.24-0.77
			l2.62-6.67h2.42l2.55,6.67c0.16,0.4,0.3,0.78,0.41,1.15s0.21,0.74,0.29,1.09c0.08,0.35,0.16,0.72,0.23,1.1l-0.53,0.13
			c0.06-0.35,0.1-0.64,0.13-0.87c0.03-0.23,0.06-0.43,0.09-0.59s0.06-0.34,0.09-0.51c0.03-0.17,0.07-0.37,0.13-0.62
			c0.06-0.24,0.15-0.55,0.26-0.94l2.71-9.06h2.97l-4.82,15.4h-2.07l-3.94-9.37l0.29,0.07l-3.74,9.31H138.73z"/>
		<path d="M157.51,60.74v-15.4h6.71c0.91,0,1.75,0.22,2.51,0.65c0.76,0.43,1.37,1.02,1.81,1.76c0.45,0.74,0.67,1.57,0.67,2.5
			c0,0.88-0.22,1.69-0.67,2.42c-0.45,0.73-1.05,1.32-1.8,1.76s-1.59,0.66-2.52,0.66h-3.92v5.65H157.51z M160.31,52.58h3.94
			c0.41,0,0.78-0.1,1.1-0.3c0.32-0.2,0.57-0.47,0.75-0.81c0.18-0.34,0.26-0.73,0.26-1.16c0-0.48-0.11-0.9-0.33-1.25
			c-0.22-0.35-0.53-0.63-0.92-0.84c-0.4-0.21-0.85-0.31-1.36-0.31h-3.43V52.58z M166.47,60.74l-3.92-6.95l2.93-0.55l4.36,7.52
			L166.47,60.74z"/>
		<path d="M172.41,60.74v-2.53h2.51V47.87h-2.51v-2.53h7.88v2.53h-2.53v10.34h2.53v2.53H172.41z"/>
		<path d="M183.8,64.83l-0.9-1.08c0.54-0.29,0.98-0.63,1.32-1.02c0.34-0.39,0.51-0.72,0.51-1c0-0.15-0.04-0.29-0.11-0.44
			c-0.07-0.15-0.23-0.34-0.48-0.57c-0.31-0.26-0.51-0.5-0.6-0.7c-0.1-0.21-0.14-0.43-0.14-0.68c0-0.4,0.14-0.71,0.42-0.93
			c0.28-0.23,0.63-0.34,1.06-0.34c0.4,0,0.75,0.11,1.07,0.33c0.31,0.22,0.56,0.52,0.74,0.91c0.18,0.39,0.26,0.84,0.26,1.35
			c0,0.45-0.08,0.9-0.23,1.33c-0.15,0.43-0.37,0.83-0.66,1.2s-0.62,0.69-0.99,0.98C184.67,64.45,184.26,64.67,183.8,64.83z"/>
		<path d="M199.58,60.74l-4.82-15.4h2.95l2.77,9.13c0.12,0.37,0.22,0.78,0.31,1.23c0.09,0.46,0.17,0.89,0.24,1.3
			c0.07,0.41,0.12,0.73,0.15,0.97h-0.59c0.19-0.7,0.34-1.27,0.44-1.69c0.1-0.43,0.19-0.78,0.26-1.06c0.07-0.28,0.15-0.54,0.24-0.77
			l2.62-6.67h2.42l2.55,6.67c0.16,0.4,0.3,0.78,0.41,1.15s0.21,0.74,0.29,1.09c0.08,0.35,0.16,0.72,0.23,1.1l-0.53,0.13
			c0.06-0.35,0.1-0.64,0.13-0.87c0.03-0.23,0.06-0.43,0.09-0.59s0.06-0.34,0.09-0.51c0.03-0.17,0.07-0.37,0.13-0.62
			c0.06-0.24,0.15-0.55,0.26-0.94l2.71-9.06h2.97l-4.82,15.4h-2.07l-3.94-9.37l0.29,0.07l-3.74,9.31H199.58z"/>
		<path d="M221.51,60.74l-4.82-15.4h2.95l2.77,9.13c0.12,0.37,0.22,0.78,0.31,1.23c0.09,0.46,0.17,0.89,0.24,1.3
			c0.07,0.41,0.12,0.73,0.15,0.97h-0.59c0.19-0.7,0.34-1.27,0.44-1.69c0.1-0.43,0.19-0.78,0.26-1.06c0.07-0.28,0.15-0.54,0.24-0.77
			l2.62-6.67h2.42l2.55,6.67c0.16,0.4,0.3,0.78,0.41,1.15s0.21,0.74,0.29,1.09c0.08,0.35,0.16,0.72,0.23,1.1l-0.53,0.13
			c0.06-0.35,0.1-0.64,0.13-0.87c0.03-0.23,0.06-0.43,0.09-0.59s0.06-0.34,0.09-0.51c0.03-0.17,0.07-0.37,0.13-0.62
			c0.06-0.24,0.15-0.55,0.26-0.94l2.71-9.06h2.97l-4.82,15.4h-2.07l-3.94-9.37l0.29,0.07l-3.74,9.31H221.51z"/>
		<path d="M240.3,60.74v-15.4h2.84v15.4H240.3z M241.6,47.98v-2.64h8.91v2.64H241.6z M241.6,54.4v-2.57h7.96v2.57H241.6z"/>
	</g>
</g>
</svg>
